<?xml version="1.0" encoding="UTF-8"?>
<svg width="510px" height="208px" viewBox="0 0 510 208" version="1.1" xmlns="http://www.w3.org/2000/svg" xmlns:xlink="http://www.w3.org/1999/xlink">
    <title>Logo Black</title>
    <defs>
        <path d="M0,0 L510,0 L510,208 L0,208 L0,0 Z" id="path-1"></path>
    </defs>
    <g id="Logo-Black" stroke="none" fill="none" xlink:href="#path-1" fill-rule="evenodd" stroke-width="1">
        <g id="Credit" transform="translate(64, 51.5)" fill="#000000">
            <path d="M32.7929688,85.0742188 C26.7630208,85.0742188 21.5351562,83.7851562 17.109375,81.2070312 C12.6835938,78.6289062 9.27115885,74.9443359 6.87207031,70.1533203 C4.47298177,65.3623047 3.2734375,59.6367188 3.2734375,52.9765625 L3.2734375,52.9335938 C3.2734375,46.2734375 4.4765625,40.555013 6.8828125,35.7783203 C9.2890625,31.0016276 12.7014974,27.3313802 17.1201172,24.7675781 C21.538737,22.203776 26.7630208,20.921875 32.7929688,20.921875 C37.8203125,20.921875 42.2926432,21.8958333 46.2099609,23.84375 C50.1272786,25.7916667 53.2783203,28.4664714 55.6630859,31.8681641 C58.0478516,35.2698568 59.4335938,39.1692708 59.8203125,43.5664062 L59.8632812,43.9746094 L47.2304688,43.9746094 L47.0585938,43.2441406 C46.5716146,40.952474 45.6979167,38.9615885 44.4375,37.2714844 C43.1770833,35.5813802 41.5693359,34.2672526 39.6142578,33.3291016 C37.6591797,32.3909505 35.3854167,31.921875 32.7929688,31.921875 C29.484375,31.921875 26.6126302,32.7705078 24.1777344,34.4677734 C21.7428385,36.1650391 19.859375,38.5784505 18.5273438,41.7080078 C17.1953125,44.8375651 16.5292969,48.5722656 16.5292969,52.9121094 L16.5292969,52.9550781 C16.5292969,57.2949219 17.1953125,61.047526 18.5273438,64.2128906 C19.859375,67.3782552 21.75,69.813151 24.1992188,71.5175781 C26.6484375,73.2220052 29.5201823,74.0742188 32.8144531,74.0742188 C35.3066406,74.0742188 37.5302734,73.6158854 39.4853516,72.6992188 C41.4404297,71.7825521 43.0768229,70.4576823 44.3945312,68.7246094 C45.7122396,66.9915365 46.6432292,64.9003906 47.1875,62.4511719 L47.2734375,62.0214844 L59.90625,62.0214844 L59.8632812,62.4726562 C59.4765625,66.8697917 58.0836589,70.7692057 55.6845703,74.1708984 C53.2854818,77.5725911 50.1236979,80.2402344 46.1992188,82.1738281 C42.2747396,84.1074219 37.8059896,85.0742188 32.7929688,85.0742188 Z" id="Path" fill-rule="nonzero"></path>
            <path d="M66.8242188,84 L66.8242188,37.9375 L79.3710938,37.9375 L79.3710938,45.9726562 L79.6289062,45.9726562 C80.3020833,43.1367188 81.5445964,40.9309896 83.3564453,39.3554688 C85.1682943,37.7799479 87.4134115,36.9921875 90.0917969,36.9921875 C90.7936198,36.9921875 91.4560547,37.038737 92.0791016,37.1318359 C92.7021484,37.2249349 93.25,37.343099 93.7226562,37.4863281 L93.7226562,48.5292969 C93.2070312,48.3144531 92.5481771,48.1425781 91.7460938,48.0136719 C90.9440104,47.8847656 90.0846354,47.8203125 89.1679688,47.8203125 C87.1054688,47.8203125 85.3401693,48.2213542 83.8720703,49.0234375 C82.4039714,49.8255208 81.2867839,51 80.5205078,52.546875 C79.7542318,54.09375 79.3710938,55.984375 79.3710938,58.21875 L79.3710938,84 L66.8242188,84 Z" id="Path" fill-rule="nonzero"></path>
            <path d="M118.300781,84.9453125 C113.602865,84.9453125 109.560221,83.9785156 106.172852,82.0449219 C102.785482,80.1113281 100.182292,77.3541667 98.3632812,73.7734375 C96.5442708,70.1927083 95.6347656,65.953125 95.6347656,61.0546875 L95.6347656,61.0117188 C95.6347656,56.1276042 96.5442708,51.8880208 98.3632812,48.2929688 C100.182292,44.6979167 102.749674,41.9156901 106.06543,39.9462891 C109.381185,37.976888 113.28776,36.9921875 117.785156,36.9921875 C122.282552,36.9921875 126.171224,37.9482422 129.451172,39.8603516 C132.73112,41.7724609 135.262695,44.4615885 137.045898,47.9277344 C138.829102,51.3938802 139.720703,55.4472656 139.720703,60.0878906 L139.720703,63.9550781 L101.800781,63.9550781 L101.800781,56.0488281 L133.791016,56.0488281 L127.839844,63.4394531 L127.839844,58.6054688 C127.839844,55.9127604 127.424479,53.656901 126.59375,51.8378906 C125.763021,50.0188802 124.610026,48.6510417 123.134766,47.734375 C121.659505,46.8177083 119.947917,46.359375 118,46.359375 C116.052083,46.359375 114.326172,46.8320312 112.822266,47.7773438 C111.318359,48.7226562 110.140299,50.1083984 109.288086,51.9345703 C108.435872,53.7607422 108.009766,55.984375 108.009766,58.6054688 L108.009766,63.4824219 C108.009766,66.0175781 108.435872,68.1875 109.288086,69.9921875 C110.140299,71.796875 111.354167,73.1790365 112.929688,74.1386719 C114.505208,75.0983073 116.38151,75.578125 118.558594,75.578125 C120.277344,75.578125 121.766927,75.3095703 123.027344,74.7724609 C124.28776,74.2353516 125.31543,73.5514323 126.110352,72.7207031 C126.905273,71.889974 127.445964,71.0377604 127.732422,70.1640625 L127.818359,69.90625 L139.333984,69.90625 L139.226562,70.4003906 C138.86849,72.0904948 138.191732,73.7913411 137.196289,75.5029297 C136.200846,77.2145182 134.850911,78.7864583 133.146484,80.21875 C131.442057,81.6510417 129.361654,82.796875 126.905273,83.65625 C124.448893,84.515625 121.580729,84.9453125 118.300781,84.9453125 Z" id="Path" fill-rule="nonzero"></path>
            <path d="M163.224609,84.9453125 C159.357422,84.9453125 156.020182,83.9856771 153.212891,82.0664062 C150.405599,80.1471354 148.246419,77.3971354 146.735352,73.8164062 C145.224284,70.2356771 144.46875,65.953125 144.46875,60.96875 L144.46875,60.9257812 C144.46875,55.9270833 145.227865,51.6409505 146.746094,48.0673828 C148.264323,44.4938151 150.423503,41.7545573 153.223633,39.8496094 C156.023763,37.9446615 159.35026,36.9921875 163.203125,36.9921875 C165.394531,36.9921875 167.406901,37.3502604 169.240234,38.0664062 C171.073568,38.7825521 172.684896,39.8102214 174.074219,41.1494141 C175.463542,42.4886068 176.573568,44.0891927 177.404297,45.9511719 L177.662109,45.9511719 L177.662109,21.9960938 L190.208984,21.9960938 L190.208984,84 L177.662109,84 L177.662109,76.1582031 L177.404297,76.1582031 C176.587891,77.9915365 175.492188,79.5598958 174.117188,80.8632812 C172.742188,82.1666667 171.138021,83.1728516 169.304688,83.8818359 C167.471354,84.5908203 165.444661,84.9453125 163.224609,84.9453125 Z M167.414062,74.546875 C169.447917,74.546875 171.238281,73.9954427 172.785156,72.8925781 C174.332031,71.7897135 175.535156,70.2213542 176.394531,68.1875 C177.253906,66.1536458 177.683594,63.7545573 177.683594,60.9902344 L177.683594,60.9472656 C177.683594,58.1686198 177.246745,55.7659505 176.373047,53.7392578 C175.499349,51.7125651 174.296224,50.1477865 172.763672,49.0449219 C171.23112,47.9420573 169.447917,47.390625 167.414062,47.390625 C165.33724,47.390625 163.536133,47.9348958 162.010742,49.0234375 C160.485352,50.1119792 159.307292,51.6660156 158.476562,53.6855469 C157.645833,55.7050781 157.230469,58.1184896 157.230469,60.9257812 L157.230469,60.96875 C157.230469,63.7617188 157.642253,66.1751302 158.46582,68.2089844 C159.289388,70.2428385 160.467448,71.8076172 162,72.9033203 C163.532552,73.9990234 165.33724,74.546875 167.414062,74.546875 Z" id="Shape" fill-rule="nonzero"></path>
            <path d="M198.802734,84 L198.802734,37.9375 L211.349609,37.9375 L211.349609,84 L198.802734,84 Z M205.076172,32.0292969 C203.19987,32.0292969 201.613607,31.3847656 200.317383,30.0957031 C199.021159,28.8066406 198.373047,27.2740885 198.373047,25.4980469 C198.373047,23.6933594 199.021159,22.1536458 200.317383,20.8789062 C201.613607,19.6041667 203.19987,18.9667969 205.076172,18.9667969 C206.966797,18.9667969 208.556641,19.6041667 209.845703,20.8789062 C211.134766,22.1536458 211.779297,23.6933594 211.779297,25.4980469 C211.779297,27.2740885 211.134766,28.8066406 209.845703,30.0957031 C208.556641,31.3847656 206.966797,32.0292969 205.076172,32.0292969 Z" id="Shape" fill-rule="nonzero"></path>
            <path d="M238.054688,84.9453125 C232.941406,84.9453125 229.156576,83.8746745 226.700195,81.7333984 C224.243815,79.5921224 223.015625,76.0579427 223.015625,71.1308594 L223.015625,47.390625 L216.613281,47.390625 L216.613281,37.9375 L223.015625,37.9375 L223.015625,26.7011719 L235.691406,26.7011719 L235.691406,37.9375 L244.113281,37.9375 L244.113281,47.390625 L235.691406,47.390625 L235.691406,69.7558594 C235.691406,71.9042969 236.167643,73.3974609 237.120117,74.2353516 C238.072591,75.0732422 239.501302,75.4921875 241.40625,75.4921875 C241.964844,75.4921875 242.458984,75.4707031 242.888672,75.4277344 C243.318359,75.3847656 243.726562,75.3417969 244.113281,75.2988281 L244.113281,84.4726562 C243.411458,84.5872396 242.552083,84.6946615 241.535156,84.7949219 C240.518229,84.8951823 239.358073,84.9453125 238.054688,84.9453125 Z" id="Path" fill-rule="nonzero"></path>
        </g>
        <g id="X" transform="translate(285, 15)" fill="#000000">
            <path d="M156.884766,0 L97.453125,88.59375 L97.453125,88.9628906 L155.900391,177.556641 L119.232422,177.556641 L77.2734375,112.21875 L76.1660156,112.21875 L34.2070313,177.556641 L1.063,177.556 L130.982039,0 L156.884766,0 Z M37.5292969,0 L72.342,56.429 L53.38,81.5 L-6.10622664e-16,0 L37.5292969,0 Z" id="Combined-Shape" fill-rule="nonzero"></path>
        </g>
    </g>
</svg>